<!-- Icon sprite sort by alphabetical order -->
<svg xmlns="http://www.w3.org/2000/svg">
    <symbol id="logo" viewBox="0 0 114 19" fill="currentColor">
        <path d="M13.1758 18H11.7344L1.92578 3.39844V18H0.472656V0.9375H1.92578L11.7461 15.5508V0.9375H13.1758V18Z" />
        <path d="M22.0938 18.2344C21.0156 18.2344 20.0391 17.9688 19.1641 17.4375C18.2969 16.9062 17.6211 16.168 17.1367 15.2227C16.6523 14.2695 16.4102 13.2031 16.4102 12.0234V11.5195C16.4102 10.3008 16.6445 9.20312 17.1133 8.22656C17.5898 7.25 18.25 6.48438 19.0938 5.92969C19.9375 5.36719 20.8516 5.08594 21.8359 5.08594C23.375 5.08594 24.5938 5.61328 25.4922 6.66797C26.3984 7.71484 26.8516 9.14844 26.8516 10.9688V11.7539H17.8047V12.0234C17.8047 13.4609 18.2148 14.6602 19.0352 15.6211C19.8633 16.5742 20.9023 17.0508 22.1523 17.0508C22.9023 17.0508 23.5625 16.9141 24.1328 16.6406C24.7109 16.3672 25.2344 15.9297 25.7031 15.3281L26.582 15.9961C25.5508 17.4883 24.0547 18.2344 22.0938 18.2344ZM21.8359 6.28125C20.7812 6.28125 19.8906 6.66797 19.1641 7.44141C18.4453 8.21484 18.0078 9.25391 17.8516 10.5586H25.457V10.4062C25.418 9.1875 25.0703 8.19531 24.4141 7.42969C23.7578 6.66406 22.8984 6.28125 21.8359 6.28125Z" />
        <path d="M33.5664 10.4648L36.9883 5.32031H38.6523L34.3516 11.543L38.8398 18H37.1875L33.5781 12.6328L29.9688 18H28.3164L32.793 11.543L28.4922 5.32031H30.1445L33.5664 10.4648Z" />
        <path d="M43.4336 2.07422V5.32031H46.0586V6.46875H43.4336V14.918C43.4336 15.6211 43.5586 16.1445 43.8086 16.4883C44.0664 16.832 44.4922 17.0039 45.0859 17.0039C45.3203 17.0039 45.6992 16.9648 46.2227 16.8867L46.2812 18.0352C45.9141 18.168 45.4141 18.2344 44.7812 18.2344C43.8203 18.2344 43.1211 17.957 42.6836 17.4023C42.2461 16.8398 42.0273 16.0156 42.0273 14.9297V6.46875H39.6953V5.32031H42.0273V2.07422H43.4336Z" />
        <path d="M61.5039 3.78516H56.2773V18H52.7617V3.78516H47.6055V0.9375H61.5039V3.78516Z" />
        <path d="M69.6484 8.49609C69.1875 8.43359 68.7812 8.40234 68.4297 8.40234C67.1484 8.40234 66.3086 8.83594 65.9102 9.70312V18H62.5234V5.32031H65.7227L65.8164 6.83203C66.4961 5.66797 67.4375 5.08594 68.6406 5.08594C69.0156 5.08594 69.3672 5.13672 69.6953 5.23828L69.6484 8.49609Z" />
        <path d="M78.2852 18C78.1289 17.6953 78.0156 17.3164 77.9453 16.8633C77.125 17.7773 76.0586 18.2344 74.7461 18.2344C73.5039 18.2344 72.4727 17.875 71.6523 17.1562C70.8398 16.4375 70.4336 15.5312 70.4336 14.4375C70.4336 13.0938 70.9297 12.0625 71.9219 11.3438C72.9219 10.625 74.3633 10.2617 76.2461 10.2539H77.8047V9.52734C77.8047 8.94141 77.6523 8.47266 77.3477 8.12109C77.0508 7.76953 76.5781 7.59375 75.9297 7.59375C75.3594 7.59375 74.9102 7.73047 74.582 8.00391C74.2617 8.27734 74.1016 8.65234 74.1016 9.12891H70.7148C70.7148 8.39453 70.9414 7.71484 71.3945 7.08984C71.8477 6.46484 72.4883 5.97656 73.3164 5.625C74.1445 5.26562 75.0742 5.08594 76.1055 5.08594C77.668 5.08594 78.9062 5.48047 79.8203 6.26953C80.7422 7.05078 81.2031 8.15234 81.2031 9.57422V15.0703C81.2109 16.2734 81.3789 17.1836 81.707 17.8008V18H78.2852ZM75.4844 15.6445C75.9844 15.6445 76.4453 15.5352 76.8672 15.3164C77.2891 15.0898 77.6016 14.7891 77.8047 14.4141V12.2344H76.5391C74.8438 12.2344 73.9414 12.8203 73.832 13.9922L73.8203 14.1914C73.8203 14.6133 73.9688 14.9609 74.2656 15.2344C74.5625 15.5078 74.9688 15.6445 75.4844 15.6445Z" />
        <path d="M87.3789 18H83.9805V5.32031H87.3789V18ZM83.7812 2.03906C83.7812 1.53125 83.9492 1.11328 84.2852 0.785156C84.6289 0.457031 85.0938 0.292969 85.6797 0.292969C86.2578 0.292969 86.7188 0.457031 87.0625 0.785156C87.4062 1.11328 87.5781 1.53125 87.5781 2.03906C87.5781 2.55469 87.4023 2.97656 87.0508 3.30469C86.707 3.63281 86.25 3.79688 85.6797 3.79688C85.1094 3.79688 84.6484 3.63281 84.2969 3.30469C83.9531 2.97656 83.7812 2.55469 83.7812 2.03906Z" />
        <path d="M93.2969 5.32031L93.4023 6.78516C94.3086 5.65234 95.5234 5.08594 97.0469 5.08594C98.3906 5.08594 99.3906 5.48047 100.047 6.26953C100.703 7.05859 101.039 8.23828 101.055 9.80859V18H97.668V9.89062C97.668 9.17188 97.5117 8.65234 97.1992 8.33203C96.8867 8.00391 96.3672 7.83984 95.6406 7.83984C94.6875 7.83984 93.9727 8.24609 93.4961 9.05859V18H90.1094V5.32031H93.2969Z" />
        <path d="M110.5 14.4961C110.5 14.082 110.293 13.7578 109.879 13.5234C109.473 13.2812 108.816 13.0664 107.91 12.8789C104.895 12.2461 103.387 10.9648 103.387 9.03516C103.387 7.91016 103.852 6.97266 104.781 6.22266C105.719 5.46484 106.941 5.08594 108.449 5.08594C110.059 5.08594 111.344 5.46484 112.305 6.22266C113.273 6.98047 113.758 7.96484 113.758 9.17578H110.371C110.371 8.69141 110.215 8.29297 109.902 7.98047C109.59 7.66016 109.102 7.5 108.438 7.5C107.867 7.5 107.426 7.62891 107.113 7.88672C106.801 8.14453 106.645 8.47266 106.645 8.87109C106.645 9.24609 106.82 9.55078 107.172 9.78516C107.531 10.0117 108.133 10.2109 108.977 10.3828C109.82 10.5469 110.531 10.7344 111.109 10.9453C112.898 11.6016 113.793 12.7383 113.793 14.3555C113.793 15.5117 113.297 16.4492 112.305 17.168C111.312 17.8789 110.031 18.2344 108.461 18.2344C107.398 18.2344 106.453 18.0469 105.625 17.6719C104.805 17.2891 104.16 16.7695 103.691 16.1133C103.223 15.4492 102.988 14.7344 102.988 13.9688H106.199C106.23 14.5703 106.453 15.0312 106.867 15.3516C107.281 15.6719 107.836 15.832 108.531 15.832C109.18 15.832 109.668 15.7109 109.996 15.4688C110.332 15.2188 110.5 14.8945 110.5 14.4961Z" />
    </symbol>

    <symbol id="arrow" viewBox="0 0 10 10" fill="currentColor">
        <path d="M5.42708 0.416656L4.24083 1.59499L6.81417 4.16832H0V5.83166H6.81417L4.24083 8.40499L5.42708 9.58332L10 4.99999L5.42708 0.416656Z" />
    </symbol>

    <symbol id="bell-outline" viewBox="0 0 15 17" fill="currentColor">
        <path d="M9.62502 14.875C9.62502 16.0069 8.63902 17 7.52056 17C6.4021 17 5.37502 16.0069 5.37502 14.875H9.62502ZM9.72206 2.79437C9.2659 2.52946 8.98398 2.03646 8.98469 1.50521V1.50308C8.9854 0.672917 8.32027 0 7.50002 0C6.67977 0 6.01465 0.672917 6.01465 1.50308V1.50521C6.01535 2.03717 5.73415 2.52946 5.27727 2.79437C1.97077 4.71325 3.87123 11.0925 0.416687 12.2195V13.4583H14.5834V12.2195C11.1288 11.0925 13.03 4.71254 9.72206 2.79437ZM7.50002 0.708333C7.89102 0.708333 8.20835 1.02637 8.20835 1.41667C8.20835 1.80767 7.89102 2.125 7.50002 2.125C7.10902 2.125 6.79169 1.80767 6.79169 1.41667C6.79169 1.02637 7.10902 0.708333 7.50002 0.708333ZM2.93056 12.0417C3.77277 10.8609 4.06744 9.28554 4.32173 7.92271C4.63835 6.22979 4.93727 4.63037 5.98915 4.0205C6.96665 3.45312 8.08298 3.48217 9.0116 4.0205C10.0635 4.63037 10.3624 6.22979 10.679 7.92271C10.9333 9.28554 11.228 10.8609 12.0702 12.0417H2.93056Z" />
    </symbol>

    <symbol id="bell" viewBox="0 0 15 17" fill="currentColor">
        <path d="M9.30538 2.79437C8.84921 2.52946 8.56729 2.03646 8.568 1.50521V1.50308C8.56871 0.672917 7.90358 0 7.08333 0C6.26308 0 5.59796 0.672917 5.59796 1.50308V1.50521C5.59867 2.03717 5.31746 2.52946 4.86058 2.79437C1.55479 4.71537 3.45454 11.0925 0 12.2195V13.4583H14.1667V12.2195C10.7121 11.0925 12.6119 4.71537 9.30538 2.79437ZM7.08333 0.708333C7.47433 0.708333 7.79167 1.02637 7.79167 1.41667C7.79167 1.80767 7.47433 2.125 7.08333 2.125C6.69233 2.125 6.375 1.80767 6.375 1.41667C6.375 1.02637 6.69233 0.708333 7.08333 0.708333ZM9.20833 14.875C9.20833 16.0069 8.22233 17 7.10388 17C5.98542 17 4.95833 16.0069 4.95833 14.875H9.20833Z" />
    </symbol>

    <symbol id="ter" viewBox="0 0 398.9 193.4" fill="currentColor">
        <path d="M143.2,144.6c0-1.2,0.1-2.4,0.4-3.6c1.5-7,6.9-14.3,13.9-18.6c22.2-13.6,40.6-9.6,43.3-8.1  c0.3,0.2,0.1,0.4-0.1,0.9c-2.5,6.4-25.6,26.7-55.2,37.5C144.1,150.4,143.2,147.3,143.2,144.6 M220,107.4c-2.8-3.1-10.2-6.5-20.2-8.1  c-9.7-1.5-29.8-2.6-51.6,8.6c-22.8,11.7-37.5,33.4-30.9,54c0.1,0-19.2,7.1-33.6,4.2c-7.8-1.6-15.1-7.3-17.4-15  c-3.6-11.8-0.6-32,19.6-50.4c26.7-24.4,66.8-33.1,83.9-36.8c7.9-1.7,8.9-2,9.1-3.1c0.1-0.5,0.4-2.3-1.2-4.2  c-2.4-2.8-9.3-5.8-28.3-3.8C129.8,55,103,62.9,95,65.4c5.5-11.5,22.5-42.1,25.5-47.9c4.9-9.4,6.7-13.4,6.7-15.6  c0-0.6-0.2-1.1-0.5-1.4c-2.8-2.6-18.8,6.1-31,20.5C83.4,35.4,76.9,47,67.2,62.2c-10.7,17-44.3,25.6-60.5,30c-4.3,1.2-5.6,1.4-6.2,2  c-0.5,0.6-0.7,1.4-0.5,2.2c1.4,4.8,9.6,9.9,18.1,10.3c6.2,0.3,13.5-0.7,25-3.9c-6.1,9.7-16.5,31.2-16.5,51.6  c0,15.9,7.3,34.8,38.4,37.8c24.5,2.3,48.2-6.4,64.9-12.8c18.8,14.6,44.4,13.8,44.5,13.8c65.7,0,96.2-52.6,101.8-62.4  c0,0.1,6,19.6,17.5,35.4c15.7,21.7,37.5,28.5,59.8,26.4c26.5-2.5,43.6-23,45.2-26.8c0.8-1.9,0-3.9-4.9-1.3  c-4.1,2.2-8.6,5.5-19.6,7.6c-49.2,9.3-63.9-41.8-74.4-63.7c-1.4-3.1-2.7-5.4-4.1-6c-3-1.2-26.2,2.9-28.7,7.8  c-25.8,48-59.4,58.7-84.8,59.1c-8.5,0.1-15.7-1.6-21.4-4.6c10-4.9,17-8.7,24.2-13.5c26.4-17.6,36-36.4,36-42.5  C220.8,108.3,220.5,107.9,220,107.4z" />
    </symbol>

    <symbol id="tgv" viewBox="0 0 189.1207 50.556877" fill="currentColor">
        <g transform="translate(-102.95316,-388.15233)">
            <path d="M 104.54755,395.19413 C 237.89022,373.24776 226.38525,410.42691 241.20078,419.3169 C 247.30552,420.29937 272.52192,390.58212 291.32975,393.78825 C 294.48933,394.25799 283.13056,399.66741 269.82118,409.54798 C 266.78458,411.80229 263.24229,413.90896 260.54625,416.97096 C 252.25704,426.38531 244.69476,432.48839 238.75981,436.45876 C 236.49418,438.4509 234.19549,437.50089 232.12717,435.48627 C 226.16873,428.08214 222.88418,415.57914 214.13235,409.70802 C 202.50565,401.90832 189.37128,401.15853 174.36214,408.40921 C 146.85864,427.82398 187.37901,439.08777 198.26624,423.03016 C 200.38371,414.92092 190.77171,417.07497 183.18114,417.46027 C 185.68275,407.83105 204.02459,409.74993 208.24562,412.35455 C 215.93502,451.39464 116.42034,445.60391 164.38277,402.37517 C 154.51257,400.23531 145.28853,403.19774 139.74464,411.12167 C 121.3598,437.39925 120.05918,438.35023 118.19913,437.18695 C 114.92354,437.43332 114.8451,434.26459 116.67289,429.89328 C 119.81639,422.37531 130.37568,408.41659 127.01812,406.08843 C 125.44488,404.56528 122.98336,403.434 120.20489,403.84515 C 114.41707,404.70161 109.02755,405.45771 105.89897,403.99972 C 102.55754,400.87179 102.49179,397.96224 104.54755,395.19413 z" />
        </g>
    </symbol>

    <symbol id="refresh" viewBox="0 0 15 15" fill="currentColor">
        <path d="M10.9694 3.78871C10.0239 2.90347 8.79702 2.41821 7.4954 2.41935C5.15292 2.42141 3.13065 4.02756 2.57229 6.25554C2.53164 6.41773 2.38715 6.53226 2.21994 6.53226H0.486986C0.260232 6.53226 0.0879738 6.3264 0.129919 6.10355C0.784264 2.62875 3.83507 0 7.5 0C9.50952 0 11.3344 0.790403 12.6809 2.07717L13.761 0.997077C14.2182 0.539849 15 0.863679 15 1.51031V5.56452C15 5.96537 14.675 6.29032 14.2742 6.29032H10.22C9.57336 6.29032 9.24953 5.50854 9.70675 5.05128L10.9694 3.78871ZM0.725806 8.70968H4.78001C5.42664 8.70968 5.75047 9.49146 5.29325 9.94872L4.03064 11.2113C4.97607 12.0966 6.20307 12.5819 7.50472 12.5807C9.84599 12.5786 11.8691 10.9735 12.4277 8.74452C12.4684 8.58233 12.6129 8.4678 12.7801 8.4678H14.513C14.7398 8.4678 14.9121 8.67366 14.8701 8.89651C14.2157 12.3713 11.1649 15 7.5 15C5.49048 15 3.66559 14.2096 2.3191 12.9228L1.23901 14.0029C0.781784 14.4602 0 14.1363 0 13.4897V9.43548C0 9.03463 0.32495 8.70968 0.725806 8.70968Z" />
    </symbol>

    <symbol id="edit" viewBox="0 0 15 15" fill="currentColor">
        <path d="M8.51787 2.73147L12.2684 6.48211L4.12433 14.6265L0.780474 14.9956C0.332829 15.0451 -0.0453838 14.6666 0.00441962 14.219L0.37648 10.8726L8.51787 2.73147ZM14.588 2.17306L12.827 0.411994C12.2777 -0.137331 11.3868 -0.137331 10.8375 0.411994L9.18084 2.06876L12.9313 5.81941L14.588 4.16264C15.1373 3.61302 15.1373 2.72238 14.588 2.17306Z" />
    </symbol>

    <symbol id="plus" viewBox="0 0 15 15" fill="currentColor">
        <path d="M15 6.25H8.75V0H6.25V6.25H0V8.75H6.25V15H8.75V8.75H15V6.25Z" />
    </symbol>

    <symbol id="save" viewBox="0 0 20 15" fill="currentColor">
        <path d="M7.5 15L0 7.0515L2.0985 4.90725L7.46025 10.512L17.3182 0L19.5 2.1045L7.5 15Z" />
    </symbol>
</svg>
