<!-- Icon sprite sort by alphabetical order -->
<svg xmlns="http://www.w3.org/2000/svg">
    <symbol id="arrow" viewBox="0 0 10 10">
        <path d="M5.42708 0.416656L4.24083 1.59499L6.81417 4.16832H0V5.83166H6.81417L4.24083 8.40499L5.42708 9.58332L10 4.99999L5.42708 0.416656Z" fill="currentColor"/>
    </symbol>
    <symbol id="bell-outline" viewBox="0 0 15 17">
        <path d="M9.62502 14.875C9.62502 16.0069 8.63902 17 7.52056 17C6.4021 17 5.37502 16.0069 5.37502 14.875H9.62502ZM9.72206 2.79437C9.2659 2.52946 8.98398 2.03646 8.98469 1.50521V1.50308C8.9854 0.672917 8.32027 0 7.50002 0C6.67977 0 6.01465 0.672917 6.01465 1.50308V1.50521C6.01535 2.03717 5.73415 2.52946 5.27727 2.79437C1.97077 4.71325 3.87123 11.0925 0.416687 12.2195V13.4583H14.5834V12.2195C11.1288 11.0925 13.03 4.71254 9.72206 2.79437ZM7.50002 0.708333C7.89102 0.708333 8.20835 1.02637 8.20835 1.41667C8.20835 1.80767 7.89102 2.125 7.50002 2.125C7.10902 2.125 6.79169 1.80767 6.79169 1.41667C6.79169 1.02637 7.10902 0.708333 7.50002 0.708333ZM2.93056 12.0417C3.77277 10.8609 4.06744 9.28554 4.32173 7.92271C4.63835 6.22979 4.93727 4.63037 5.98915 4.0205C6.96665 3.45312 8.08298 3.48217 9.0116 4.0205C10.0635 4.63037 10.3624 6.22979 10.679 7.92271C10.9333 9.28554 11.228 10.8609 12.0702 12.0417H2.93056Z" fill="currentColor"/>
    </symbol>
    <symbol id="bell" viewBox="0 0 15 17">
        <path d="M9.30538 2.79437C8.84921 2.52946 8.56729 2.03646 8.568 1.50521V1.50308C8.56871 0.672917 7.90358 0 7.08333 0C6.26308 0 5.59796 0.672917 5.59796 1.50308V1.50521C5.59867 2.03717 5.31746 2.52946 4.86058 2.79437C1.55479 4.71537 3.45454 11.0925 0 12.2195V13.4583H14.1667V12.2195C10.7121 11.0925 12.6119 4.71537 9.30538 2.79437ZM7.08333 0.708333C7.47433 0.708333 7.79167 1.02637 7.79167 1.41667C7.79167 1.80767 7.47433 2.125 7.08333 2.125C6.69233 2.125 6.375 1.80767 6.375 1.41667C6.375 1.02637 6.69233 0.708333 7.08333 0.708333ZM9.20833 14.875C9.20833 16.0069 8.22233 17 7.10388 17C5.98542 17 4.95833 16.0069 4.95833 14.875H9.20833Z" fill="currentColor"/>
    </symbol>
</svg>
