<!-- Icon sprite sort by alphabetical order -->
<svg xmlns="http://www.w3.org/2000/svg">
    <symbol id="arrow" viewBox="0 0 10 10">
        <path d="M5.42708 0.416656L4.24083 1.59499L6.81417 4.16832H0V5.83166H6.81417L4.24083 8.40499L5.42708 9.58332L10 4.99999L5.42708 0.416656Z" fill="currentColor"/>
    </symbol>
    <symbol id="bell-outline" viewBox="0 0 15 17">
        <path d="M9.62502 14.875C9.62502 16.0069 8.63902 17 7.52056 17C6.4021 17 5.37502 16.0069 5.37502 14.875H9.62502ZM9.72206 2.79437C9.2659 2.52946 8.98398 2.03646 8.98469 1.50521V1.50308C8.9854 0.672917 8.32027 0 7.50002 0C6.67977 0 6.01465 0.672917 6.01465 1.50308V1.50521C6.01535 2.03717 5.73415 2.52946 5.27727 2.79437C1.97077 4.71325 3.87123 11.0925 0.416687 12.2195V13.4583H14.5834V12.2195C11.1288 11.0925 13.03 4.71254 9.72206 2.79437ZM7.50002 0.708333C7.89102 0.708333 8.20835 1.02637 8.20835 1.41667C8.20835 1.80767 7.89102 2.125 7.50002 2.125C7.10902 2.125 6.79169 1.80767 6.79169 1.41667C6.79169 1.02637 7.10902 0.708333 7.50002 0.708333ZM2.93056 12.0417C3.77277 10.8609 4.06744 9.28554 4.32173 7.92271C4.63835 6.22979 4.93727 4.63037 5.98915 4.0205C6.96665 3.45312 8.08298 3.48217 9.0116 4.0205C10.0635 4.63037 10.3624 6.22979 10.679 7.92271C10.9333 9.28554 11.228 10.8609 12.0702 12.0417H2.93056Z" fill="currentColor"/>
    </symbol>
    <symbol id="bell" viewBox="0 0 15 17">
        <path d="M9.30538 2.79437C8.84921 2.52946 8.56729 2.03646 8.568 1.50521V1.50308C8.56871 0.672917 7.90358 0 7.08333 0C6.26308 0 5.59796 0.672917 5.59796 1.50308V1.50521C5.59867 2.03717 5.31746 2.52946 4.86058 2.79437C1.55479 4.71537 3.45454 11.0925 0 12.2195V13.4583H14.1667V12.2195C10.7121 11.0925 12.6119 4.71537 9.30538 2.79437ZM7.08333 0.708333C7.47433 0.708333 7.79167 1.02637 7.79167 1.41667C7.79167 1.80767 7.47433 2.125 7.08333 2.125C6.69233 2.125 6.375 1.80767 6.375 1.41667C6.375 1.02637 6.69233 0.708333 7.08333 0.708333ZM9.20833 14.875C9.20833 16.0069 8.22233 17 7.10388 17C5.98542 17 4.95833 16.0069 4.95833 14.875H9.20833Z" fill="currentColor"/>
    </symbol>
    <symbol id="ter" viewBox="0 0 398.9 193.4">
        <path d="M143.2,144.6c0-1.2,0.1-2.4,0.4-3.6c1.5-7,6.9-14.3,13.9-18.6c22.2-13.6,40.6-9.6,43.3-8.1  c0.3,0.2,0.1,0.4-0.1,0.9c-2.5,6.4-25.6,26.7-55.2,37.5C144.1,150.4,143.2,147.3,143.2,144.6 M220,107.4c-2.8-3.1-10.2-6.5-20.2-8.1  c-9.7-1.5-29.8-2.6-51.6,8.6c-22.8,11.7-37.5,33.4-30.9,54c0.1,0-19.2,7.1-33.6,4.2c-7.8-1.6-15.1-7.3-17.4-15  c-3.6-11.8-0.6-32,19.6-50.4c26.7-24.4,66.8-33.1,83.9-36.8c7.9-1.7,8.9-2,9.1-3.1c0.1-0.5,0.4-2.3-1.2-4.2  c-2.4-2.8-9.3-5.8-28.3-3.8C129.8,55,103,62.9,95,65.4c5.5-11.5,22.5-42.1,25.5-47.9c4.9-9.4,6.7-13.4,6.7-15.6  c0-0.6-0.2-1.1-0.5-1.4c-2.8-2.6-18.8,6.1-31,20.5C83.4,35.4,76.9,47,67.2,62.2c-10.7,17-44.3,25.6-60.5,30c-4.3,1.2-5.6,1.4-6.2,2  c-0.5,0.6-0.7,1.4-0.5,2.2c1.4,4.8,9.6,9.9,18.1,10.3c6.2,0.3,13.5-0.7,25-3.9c-6.1,9.7-16.5,31.2-16.5,51.6  c0,15.9,7.3,34.8,38.4,37.8c24.5,2.3,48.2-6.4,64.9-12.8c18.8,14.6,44.4,13.8,44.5,13.8c65.7,0,96.2-52.6,101.8-62.4  c0,0.1,6,19.6,17.5,35.4c15.7,21.7,37.5,28.5,59.8,26.4c26.5-2.5,43.6-23,45.2-26.8c0.8-1.9,0-3.9-4.9-1.3  c-4.1,2.2-8.6,5.5-19.6,7.6c-49.2,9.3-63.9-41.8-74.4-63.7c-1.4-3.1-2.7-5.4-4.1-6c-3-1.2-26.2,2.9-28.7,7.8  c-25.8,48-59.4,58.7-84.8,59.1c-8.5,0.1-15.7-1.6-21.4-4.6c10-4.9,17-8.7,24.2-13.5c26.4-17.6,36-36.4,36-42.5  C220.8,108.3,220.5,107.9,220,107.4z" fill="currentColor"/>
    </symbol>
    <symbol id="tgv" viewBox="0 0 189.1207 50.556877">
        <g transform="translate(-102.95316,-388.15233)">
            <path d="M 104.54755,395.19413 C 237.89022,373.24776 226.38525,410.42691 241.20078,419.3169 C 247.30552,420.29937 272.52192,390.58212 291.32975,393.78825 C 294.48933,394.25799 283.13056,399.66741 269.82118,409.54798 C 266.78458,411.80229 263.24229,413.90896 260.54625,416.97096 C 252.25704,426.38531 244.69476,432.48839 238.75981,436.45876 C 236.49418,438.4509 234.19549,437.50089 232.12717,435.48627 C 226.16873,428.08214 222.88418,415.57914 214.13235,409.70802 C 202.50565,401.90832 189.37128,401.15853 174.36214,408.40921 C 146.85864,427.82398 187.37901,439.08777 198.26624,423.03016 C 200.38371,414.92092 190.77171,417.07497 183.18114,417.46027 C 185.68275,407.83105 204.02459,409.74993 208.24562,412.35455 C 215.93502,451.39464 116.42034,445.60391 164.38277,402.37517 C 154.51257,400.23531 145.28853,403.19774 139.74464,411.12167 C 121.3598,437.39925 120.05918,438.35023 118.19913,437.18695 C 114.92354,437.43332 114.8451,434.26459 116.67289,429.89328 C 119.81639,422.37531 130.37568,408.41659 127.01812,406.08843 C 125.44488,404.56528 122.98336,403.434 120.20489,403.84515 C 114.41707,404.70161 109.02755,405.45771 105.89897,403.99972 C 102.55754,400.87179 102.49179,397.96224 104.54755,395.19413 z" fill="currentColor"/>
        </g>
    </symbol>
</svg>
